<svg width="16" height="16" viewBox="0 0 16 16" xmlns="http://www.w3.org/2000/svg">
                               <path fill-rule="evenodd" clip-rule="evenodd" d="M1.96372 3.07414L6.28622 7.39851C7.22897 8.33945 8.77003 8.34026 9.71356 7.39851L14.0361 3.07414C14.0463 3.06398 14.0541 3.05169 14.0591 3.03815C14.064 3.02461 14.0659 3.01015 14.0647 2.9958C14.0634 2.98144 14.059 2.96754 14.0517 2.95508C14.0445 2.94262 14.0346 2.93191 14.0227 2.9237C13.5819 2.61623 13.0455 2.43395 12.4677 2.43395H3.53216C2.95431 2.43395 2.41791 2.61626 1.97703 2.9237C1.96519 2.93191 1.95529 2.94262 1.94805 2.95508C1.9408 2.96754 1.93639 2.98144 1.93512 2.9958C1.93385 3.01015 1.93575 3.02461 1.9407 3.03815C1.94564 3.05169 1.9535 3.06398 1.96372 3.07414ZM0.808595 5.15748C0.808243 4.7181 0.915024 4.28525 1.11969 3.89645C1.12683 3.88274 1.13711 3.87091 1.14969 3.86193C1.16226 3.85294 1.17678 3.84705 1.19207 3.84473C1.20735 3.84241 1.22296 3.84372 1.23764 3.84857C1.25232 3.85342 1.26564 3.86167 1.27653 3.87264L5.54431 8.14042C6.89578 9.49385 9.10322 9.49464 10.4555 8.14042L14.7233 3.87264C14.7342 3.86167 14.7475 3.85342 14.7622 3.84857C14.7769 3.84372 14.7925 3.84241 14.8077 3.84473C14.823 3.84705 14.8376 3.85294 14.8501 3.86193C14.8627 3.87091 14.873 3.88274 14.8801 3.89645C15.0848 4.28526 15.1916 4.7181 15.1912 5.15748V10.843C15.1912 12.3459 13.9687 13.5666 12.4677 13.5666H3.53216C2.03116 13.5666 0.808595 12.3459 0.808595 10.843V5.15748Z"></path>
                           </svg>