<svg width="36" height="36" viewBox="0 0 36 36" xmlns="http://www.w3.org/2000/svg">
                                    <g>
                                        <path d="M20.8567 13.0961C21.1723 13.0961 21.4282 12.8402 21.4282 12.5246C21.4282 12.209 21.1723 11.9531 20.8567 11.9531C20.541 11.9531 20.2852 12.209 20.2852 12.5246C20.2852 12.8402 20.541 13.0961 20.8567 13.0961Z"></path>
                                        <path d="M15.1457 13.0961C15.4613 13.0961 15.7172 12.8402 15.7172 12.5246C15.7172 12.209 15.4613 11.9531 15.1457 11.9531C14.8301 11.9531 14.5742 12.209 14.5742 12.5246C14.5742 12.8402 14.8301 13.0961 15.1457 13.0961Z"></path>
                                        <path d="M20.3621 9.8144C20.3695 9.813 21.1188 9.69375 21.6315 10.0552C21.6796 10.0892 21.737 10.1074 21.7959 10.1073C21.8566 10.1073 21.9157 10.088 21.9647 10.0522C22.0136 10.0163 22.0499 9.96584 22.0683 9.90801C22.0867 9.85018 22.0861 9.788 22.0668 9.73048C22.0475 9.67296 22.0104 9.62308 21.9608 9.58807C21.2474 9.08526 20.3026 9.24452 20.2628 9.25162C20.2256 9.25781 20.1899 9.27133 20.1579 9.29138C20.1259 9.31143 20.0982 9.33763 20.0764 9.36846C20.0546 9.39929 20.0391 9.43414 20.0308 9.47099C20.0226 9.50784 20.0217 9.54596 20.0282 9.58315C20.0348 9.62035 20.0487 9.65587 20.069 9.68767C20.0894 9.71947 20.1159 9.74691 20.1469 9.76842C20.178 9.78992 20.213 9.80506 20.2499 9.81295C20.2869 9.82084 20.325 9.82134 20.3621 9.8144ZM17.0667 14.1066C17.3709 14.194 17.6858 14.2385 18.0023 14.2391C18.3152 14.2391 18.63 14.1945 18.938 14.1066C19.0105 14.0855 19.0718 14.0366 19.1083 13.9705C19.1449 13.9044 19.1537 13.8265 19.133 13.7538C19.1123 13.6812 19.0636 13.6197 18.9977 13.5828C18.9318 13.546 18.8539 13.5367 18.7812 13.5571C18.2674 13.7037 17.7377 13.7038 17.2236 13.5571C17.1507 13.5363 17.0725 13.5453 17.0063 13.5821C16.9401 13.6189 16.8912 13.6805 16.8704 13.7534C16.8495 13.8263 16.8585 13.9044 16.8954 13.9707C16.9322 14.0369 16.9938 14.0858 17.0667 14.1066Z"></path>
                                        <path d="M28.747 27.7065H27.9526V23.6397C27.9526 23.3378 27.9224 23.037 27.8634 22.7419C28.3305 22.6707 29.1596 22.4411 29.7405 21.6993C30.1566 21.168 30.6912 19.5875 31.0404 17.8555C31.2823 16.6561 31.6219 14.4428 31.1777 13.0945C30.7454 11.7839 29.0612 10.9847 27.663 10.5352C27.4961 9.8923 27.4062 9.18053 27.3124 8.42917C27.1231 6.91155 26.9273 5.34225 26.0453 4.17542C24.7461 2.4565 22.6356 2.38577 22.0428 2.40208C21.8073 2.12104 21.1545 1.41222 20.1308 0.833904C18.9444 0.163618 17.0192 -0.446903 14.5849 0.450773C11.5242 1.57886 10.3017 4.34403 9.31947 6.5659C8.81843 7.69919 8.3858 8.67801 7.82112 9.18032C7.78317 9.21403 7.7549 9.25724 7.7392 9.30551C7.72351 9.35377 7.72095 9.40535 7.73181 9.45493C7.74267 9.50451 7.76654 9.5503 7.80097 9.58759C7.83541 9.62488 7.87915 9.65232 7.92771 9.66709C8.47312 9.83338 8.98767 9.64543 9.40884 9.38535C9.40863 9.68186 9.42494 9.96219 9.45721 10.2247C7.85262 10.6027 5.3675 11.4434 4.82301 13.0946C4.37884 14.4428 4.71838 16.6562 4.96033 17.8556C5.30964 19.5875 5.84415 21.1681 6.26019 21.6993C6.84111 22.4411 7.67023 22.6708 8.13731 22.7419C8.07811 23.0375 8.04822 23.3383 8.04809 23.6397V27.7065H7.25391C5.6536 27.7065 4.35156 29.0086 4.35156 30.6089V35.7143C4.35158 35.79 4.38169 35.8627 4.43528 35.9163C4.48886 35.9699 4.56153 36 4.63731 36H31.3636C31.4393 36 31.512 35.9699 31.5656 35.9163C31.6192 35.8627 31.6493 35.79 31.6493 35.7143V30.6089C31.6493 29.0084 30.3473 27.7065 28.747 27.7065ZM26.4154 10.9384C26.7094 11.22 27.0791 11.4193 27.5204 11.5333C27.5714 11.5464 27.6249 11.5452 27.6752 11.5299C27.7255 11.5146 27.7706 11.4856 27.8055 11.4463C27.8338 11.4144 27.8545 11.3766 27.8662 11.3356C27.8779 11.2947 27.8802 11.2516 27.873 11.2096C29.0489 11.6302 30.3128 12.2963 30.6351 13.2734C31.3258 15.3699 29.9769 20.4708 29.2907 21.347C28.8046 21.9677 28.0694 22.138 27.715 22.1848C27.3011 20.9462 26.389 19.9503 25.1818 19.4313L23.3539 18.6449C23.5919 18.3663 23.7984 18.084 23.9595 17.8149C24.1235 17.5417 24.279 17.2068 24.4233 16.8181C25.2554 16.8015 26.064 16.17 26.4053 15.2364C26.8167 14.1093 26.4326 12.8896 25.5484 12.4131C25.9335 12.0003 26.2244 11.5077 26.4154 10.9384ZM25.8684 15.0402C25.6382 15.6701 25.1465 16.122 24.6216 16.2257C24.9026 15.2973 25.1261 14.1461 25.2647 12.9107C25.913 13.248 26.1849 14.1733 25.8684 15.0402ZM15.1001 9.06922C15.4627 8.50075 15.771 7.85683 16.0164 7.15561C16.0414 7.0841 16.0938 7.02547 16.1621 6.99258C16.2303 6.9597 16.3088 6.95526 16.3804 6.98025C16.4158 6.99262 16.4484 7.01186 16.4764 7.03685C16.5044 7.06185 16.5272 7.09211 16.5435 7.12592C16.5598 7.15972 16.5692 7.1964 16.5713 7.23387C16.5734 7.27133 16.5681 7.30884 16.5557 7.34425C16.2959 8.08717 15.9682 8.77103 15.5818 9.37663C15.556 9.41717 15.5203 9.45053 15.4782 9.47364C15.436 9.49674 15.3887 9.50884 15.3407 9.50882C15.2894 9.50878 15.2391 9.49498 15.1951 9.46884C15.151 9.44271 15.1148 9.4052 15.0902 9.36026C15.0656 9.31532 15.0535 9.2646 15.0553 9.2134C15.057 9.16219 15.0725 9.1124 15.1001 9.06922ZM14.4306 10.8067C16.1874 10.7868 17.6348 10.3078 18.7341 9.38211C19.6628 8.59869 20.364 7.47792 20.8264 6.04088C21.2373 7.35747 22.0137 8.34782 22.7702 9.31265C23.5159 10.2638 24.2861 11.2475 24.7273 12.5585C24.5787 14.0442 24.3051 15.4176 23.9551 16.4311C23.804 16.869 23.6407 17.2357 23.4694 17.5211C23.2706 17.8531 22.9934 18.2101 22.6676 18.5537C22.1623 19.0877 21.0952 20.0556 19.6256 20.5396C19.0781 20.7197 18.5314 20.8111 18.0005 20.8111C17.4696 20.8111 16.9229 20.7198 16.3754 20.5397C14.9058 20.0557 13.8387 19.0877 13.3332 18.5536C13.0076 18.21 12.7305 17.8531 12.5315 17.5209C12.3603 17.2356 12.1969 16.869 12.0459 16.4311C11.7088 15.455 11.4426 14.1451 11.2905 12.7225C12.5179 12.294 13.5729 11.6507 14.4306 10.8067ZM11.3792 16.2256C10.8544 16.1218 10.3627 15.6703 10.1325 15.0403C9.81581 14.1729 10.0879 13.2473 10.7362 12.9105C10.8748 14.146 11.0982 15.2973 11.3792 16.2256ZM6.71033 21.3469C6.02415 20.4706 4.67528 15.3698 5.36596 13.2734C5.83346 11.8555 8.26908 11.096 9.55896 10.7879C9.71962 11.4547 10.0109 12.0033 10.4289 12.426C9.56191 12.9109 9.18792 14.1191 9.59573 15.2365C9.93688 16.1701 10.7456 16.8016 11.5777 16.8181C11.722 17.2068 11.8775 17.5416 12.0413 17.8147C12.2026 18.084 12.4091 18.3663 12.6471 18.6449L10.8192 19.4313C9.61197 19.9503 8.69995 20.9461 8.28595 22.1847C7.93123 22.1378 7.19625 21.9674 6.71033 21.3469ZM6.26117 35.4284H4.92306V30.6087C4.92306 29.3235 5.96867 28.2779 7.25391 28.2779H8.04823V29.8905C7.44636 31.1161 6.9541 32.4781 6.58609 33.9413C6.46536 34.4211 6.35694 34.9206 6.26117 35.4284ZM10.2327 35.4284H6.84258C6.91697 35.0421 7.00052 34.6576 7.09318 34.2753C8.24841 34.1696 9.30281 34.3015 10.2327 34.6683V35.4284ZM13.443 35.4284H10.8042V25.4126C10.8042 25.0442 10.9592 24.6915 11.2296 24.445C11.7355 23.9832 12.3382 23.6146 13.0211 23.3493C13.0679 23.3307 13.1186 23.3239 13.1687 23.3297C13.2188 23.3354 13.2667 23.3535 13.3081 23.3822C13.3499 23.4103 13.3841 23.4483 13.4076 23.4928C13.4312 23.5374 13.4433 23.5871 13.443 23.6374V35.4284ZM13.9974 23.4734C13.9545 23.2446 13.8225 23.0421 13.6305 22.9104C13.5123 22.8295 13.3761 22.7786 13.2338 22.7623C13.0914 22.746 12.9473 22.7647 12.8138 22.8167C12.0652 23.1076 11.4027 23.5134 10.8446 24.0227C10.4558 24.3772 10.2328 24.8838 10.2328 25.4125V26.5429C9.64052 27.2332 9.10045 27.9964 8.6198 28.8224V23.6397C8.6198 23.276 8.66916 22.9144 8.76654 22.5648C9.09412 21.3886 9.92465 20.4379 11.0451 19.9562L13.0583 19.0902C13.6179 19.6533 14.6355 20.5156 16.0005 21.0126V22.6029C15.7415 22.6884 15.4856 22.7828 15.2331 22.8859C14.8107 23.0588 14.3982 23.2549 13.9974 23.4734ZM18.0004 24.6997C16.613 24.6997 15.9605 23.7681 15.7225 23.3077C15.9359 23.2266 16.1519 23.1523 16.3701 23.0848C16.4285 23.0669 16.4796 23.0307 16.5159 22.9815C16.5522 22.9324 16.5718 22.8729 16.5718 22.8118V21.1921C17.052 21.3178 17.531 21.3824 18.0004 21.3824C18.4698 21.3824 18.9489 21.3178 19.4291 21.192V22.8118C19.4291 22.8729 19.4487 22.9324 19.485 22.9816C19.5213 23.0307 19.5724 23.0669 19.6308 23.0849C19.8444 23.1507 20.0612 23.2255 20.2784 23.3078C20.0405 23.7681 19.3878 24.6997 18.0004 24.6997ZM25.1967 35.4284H22.5579V23.6375C22.5579 23.5339 22.6071 23.4408 22.6929 23.3823C22.7343 23.3535 22.7823 23.3354 22.8324 23.3297C22.8826 23.324 22.9333 23.3308 22.9802 23.3495C23.6627 23.6146 24.2653 23.9833 24.7714 24.4452C25.0416 24.6915 25.1967 25.0442 25.1967 25.4127V35.4284ZM25.1564 24.0229C24.5982 23.5134 23.9356 23.1077 23.1874 22.817C23.0539 22.7649 22.9097 22.7461 22.7673 22.7624C22.6249 22.7787 22.4886 22.8295 22.3703 22.9105C22.1783 23.0422 22.0464 23.2446 22.0034 23.4735C21.6027 23.255 21.1902 23.0588 20.7678 22.8858C20.5154 22.7828 20.2595 22.6884 20.0006 22.6029V21.0126C21.3656 20.5156 22.3832 19.6532 22.9427 19.0903L24.9561 19.9563C26.0765 20.438 26.907 21.3888 27.2345 22.5649C27.3319 22.9149 27.3813 23.2765 27.3813 23.6397V28.8225C26.9006 27.9965 26.3606 27.2333 25.7683 26.5429V25.4127C25.7682 24.8839 25.5451 24.3773 25.1564 24.0229ZM25.7682 35.4284V34.6682C26.698 34.3013 27.7522 34.1694 28.9076 34.2752C29.0003 34.6575 29.0838 35.042 29.1582 35.4283H25.7682V35.4284ZM31.0779 35.4284H29.7398C29.6441 34.9206 29.5355 34.4211 29.4148 33.9415C29.0468 32.4781 28.5545 31.1161 27.9526 29.8906V28.278H28.747C30.0322 28.278 31.0778 29.3236 31.0778 30.6088V35.4284H31.0779Z"></path>
                                        <path d="M8.47404 20.0691C8.50673 20.0507 8.53548 20.026 8.55864 19.9965C8.5818 19.967 8.59892 19.9332 8.60901 19.897C8.6191 19.8609 8.62198 19.8231 8.61747 19.7858C8.61297 19.7486 8.60116 19.7126 8.58274 19.6799C7.52616 17.8043 6.9901 15.6597 6.9894 13.3053C6.98736 13.2309 6.95635 13.1602 6.90297 13.1083C6.8496 13.0564 6.77807 13.0273 6.70361 13.0273C6.62915 13.0274 6.55764 13.0564 6.50429 13.1084C6.45094 13.1603 6.41997 13.231 6.41797 13.3055C6.41867 15.7593 6.97941 17.9983 8.08479 19.9604C8.1032 19.9931 8.12787 20.0219 8.1574 20.045C8.18693 20.0682 8.22073 20.0853 8.25688 20.0954C8.29303 20.1055 8.33082 20.1084 8.36808 20.1039C8.40534 20.0993 8.44135 20.0875 8.47404 20.0691ZM27.5265 20.0691C27.5925 20.1063 27.6706 20.1157 27.7436 20.0953C27.8165 20.0749 27.8784 20.0264 27.9156 19.9604C29.021 17.9983 29.5818 15.7592 29.5825 13.3055C29.5825 13.2297 29.5524 13.157 29.4988 13.1034C29.4452 13.0498 29.3726 13.0197 29.2968 13.0197H29.2967C29.2209 13.0197 29.1483 13.0497 29.0947 13.1033C29.0411 13.1569 29.011 13.2296 29.011 13.3053C29.0103 15.6597 28.4742 17.8044 27.4176 19.6799C27.3992 19.7126 27.3874 19.7486 27.3829 19.7859C27.3785 19.8231 27.3813 19.8609 27.3914 19.897C27.4016 19.9332 27.4187 19.967 27.4418 19.9965C27.465 20.026 27.4938 20.0507 27.5265 20.0691Z"></path>
                                    </g>
                                </svg>